<mxfile host="app.diagrams.net" agent="Mozilla/5.0 (X11; Linux x86_64) AppleWebKit/537.36 (KHTML, like Gecko) Chrome/131.0.0.0 Safari/537.36" version="24.9.3">
  <diagram name="Page-1" id="rVPshE1hsCT6qFDK92Vq">
    <mxGraphModel dx="1404" dy="710" grid="1" gridSize="10" guides="1" tooltips="1" connect="1" arrows="1" fold="1" page="1" pageScale="1" pageWidth="827" pageHeight="1169" math="0" shadow="0">
      <root>
        <mxCell id="0" />
        <mxCell id="1" parent="0" />
        <mxCell id="_Mfizh1vhixjblceVXL_-1" value="Неавторизованный&lt;br&gt;игрок" style="shape=umlActor;verticalLabelPosition=bottom;verticalAlign=top;html=1;outlineConnect=0;" parent="1" vertex="1">
          <mxGeometry x="110" y="410" width="30" height="60" as="geometry" />
        </mxCell>
        <mxCell id="_Mfizh1vhixjblceVXL_-5" value="Изменить&amp;nbsp;&lt;div&gt;настроки игры&lt;/div&gt;" style="ellipse;whiteSpace=wrap;html=1;" parent="1" vertex="1">
          <mxGeometry x="250" y="390" width="120" height="80" as="geometry" />
        </mxCell>
        <mxCell id="_Mfizh1vhixjblceVXL_-7" value="&lt;div&gt;Играть в&lt;/div&gt;&lt;div&gt;обучение&lt;/div&gt;" style="ellipse;whiteSpace=wrap;html=1;" parent="1" vertex="1">
          <mxGeometry x="294" y="210" width="120" height="80" as="geometry" />
        </mxCell>
        <mxCell id="_Mfizh1vhixjblceVXL_-8" value="&lt;div&gt;Играть в&lt;/div&gt;&lt;div&gt;соревновательный режим (1 vs 1)&lt;/div&gt;" style="ellipse;whiteSpace=wrap;html=1;" parent="1" vertex="1">
          <mxGeometry x="310" y="120" width="120" height="80" as="geometry" />
        </mxCell>
        <mxCell id="_Mfizh1vhixjblceVXL_-9" value="Авторизованный игрок" style="shape=umlActor;verticalLabelPosition=bottom;verticalAlign=top;html=1;outlineConnect=0;" parent="1" vertex="1">
          <mxGeometry x="110" y="250" width="30" height="60" as="geometry" />
        </mxCell>
        <mxCell id="_Mfizh1vhixjblceVXL_-13" value="" style="endArrow=none;endSize=16;endFill=0;html=1;rounded=0;" parent="1" target="_Mfizh1vhixjblceVXL_-7" edge="1">
          <mxGeometry width="160" relative="1" as="geometry">
            <mxPoint x="140" y="280" as="sourcePoint" />
            <mxPoint x="235" y="146" as="targetPoint" />
          </mxGeometry>
        </mxCell>
        <mxCell id="_Mfizh1vhixjblceVXL_-14" value="" style="endArrow=none;endSize=16;endFill=0;html=1;rounded=0;entryX=0.052;entryY=0.276;entryDx=0;entryDy=0;entryPerimeter=0;" parent="1" target="_Mfizh1vhixjblceVXL_-5" edge="1">
          <mxGeometry width="160" relative="1" as="geometry">
            <mxPoint x="140" y="280" as="sourcePoint" />
            <mxPoint x="264" y="255" as="targetPoint" />
          </mxGeometry>
        </mxCell>
        <mxCell id="_Mfizh1vhixjblceVXL_-16" value="" style="endArrow=none;endSize=16;endFill=0;html=1;rounded=0;" parent="1" target="_Mfizh1vhixjblceVXL_-8" edge="1">
          <mxGeometry width="160" relative="1" as="geometry">
            <mxPoint x="140" y="280" as="sourcePoint" />
            <mxPoint x="228" y="157" as="targetPoint" />
          </mxGeometry>
        </mxCell>
        <mxCell id="_Mfizh1vhixjblceVXL_-17" value="Зарегестрироватся" style="ellipse;whiteSpace=wrap;html=1;" parent="1" vertex="1">
          <mxGeometry x="210" y="480" width="120" height="80" as="geometry" />
        </mxCell>
        <mxCell id="_Mfizh1vhixjblceVXL_-18" value="" style="endArrow=none;endSize=16;endFill=0;html=1;rounded=0;" parent="1" source="_Mfizh1vhixjblceVXL_-1" target="_Mfizh1vhixjblceVXL_-17" edge="1">
          <mxGeometry width="160" relative="1" as="geometry">
            <mxPoint x="150" y="290" as="sourcePoint" />
            <mxPoint x="266" y="362" as="targetPoint" />
          </mxGeometry>
        </mxCell>
        <mxCell id="_Mfizh1vhixjblceVXL_-20" value="&lt;div&gt;Выбрать&amp;nbsp;&lt;/div&gt;&lt;div&gt;колоду карт&lt;/div&gt;" style="ellipse;whiteSpace=wrap;html=1;" parent="1" vertex="1">
          <mxGeometry x="280" y="300" width="120" height="80" as="geometry" />
        </mxCell>
        <mxCell id="_Mfizh1vhixjblceVXL_-21" value="" style="endArrow=none;endSize=16;endFill=0;html=1;rounded=0;" parent="1" target="_Mfizh1vhixjblceVXL_-20" edge="1">
          <mxGeometry width="160" relative="1" as="geometry">
            <mxPoint x="140" y="280" as="sourcePoint" />
            <mxPoint x="248" y="237" as="targetPoint" />
          </mxGeometry>
        </mxCell>
        <mxCell id="_Mfizh1vhixjblceVXL_-22" value="&lt;div&gt;Разместить&amp;nbsp;&lt;/div&gt;&lt;div&gt;карту&amp;nbsp;&lt;span style=&quot;background-color: initial;&quot;&gt;на поле&lt;/span&gt;&lt;/div&gt;" style="ellipse;whiteSpace=wrap;html=1;" parent="1" vertex="1">
          <mxGeometry x="480" y="160" width="120" height="80" as="geometry" />
        </mxCell>
        <mxCell id="_Mfizh1vhixjblceVXL_-23" value="" style="endArrow=open;dashed=1;endFill=0;endSize=12;html=1;rounded=0;" parent="1" source="_Mfizh1vhixjblceVXL_-22" target="_Mfizh1vhixjblceVXL_-8" edge="1">
          <mxGeometry width="160" relative="1" as="geometry">
            <mxPoint x="470" y="280" as="sourcePoint" />
            <mxPoint x="630" y="280" as="targetPoint" />
          </mxGeometry>
        </mxCell>
        <mxCell id="_Mfizh1vhixjblceVXL_-24" value="Включает" style="edgeLabel;html=1;align=center;verticalAlign=middle;resizable=0;points=[];" parent="_Mfizh1vhixjblceVXL_-23" vertex="1" connectable="0">
          <mxGeometry x="0.0286" y="-2" relative="1" as="geometry">
            <mxPoint y="-8" as="offset" />
          </mxGeometry>
        </mxCell>
        <mxCell id="_Mfizh1vhixjblceVXL_-30" value="Игрок&amp;nbsp;&lt;div&gt;соперник&lt;/div&gt;" style="shape=umlActor;verticalLabelPosition=bottom;verticalAlign=top;html=1;outlineConnect=0;" parent="1" vertex="1">
          <mxGeometry x="355" width="30" height="60" as="geometry" />
        </mxCell>
        <mxCell id="_Mfizh1vhixjblceVXL_-31" value="" style="endArrow=none;endSize=16;endFill=0;html=1;rounded=0;" parent="1" source="_Mfizh1vhixjblceVXL_-30" target="_Mfizh1vhixjblceVXL_-8" edge="1">
          <mxGeometry x="0.5647" y="78" width="160" relative="1" as="geometry">
            <mxPoint x="560" y="4" as="sourcePoint" />
            <mxPoint x="610" y="70" as="targetPoint" />
            <mxPoint as="offset" />
          </mxGeometry>
        </mxCell>
        <mxCell id="_Mfizh1vhixjblceVXL_-33" value="Призвать&amp;nbsp;&lt;div&gt;игрового юнита&lt;/div&gt;" style="ellipse;whiteSpace=wrap;html=1;" parent="1" vertex="1">
          <mxGeometry x="580" y="290" width="120" height="80" as="geometry" />
        </mxCell>
        <mxCell id="_Mfizh1vhixjblceVXL_-34" value="Вызвать &lt;br&gt;особую атаку&lt;div&gt;(заклинание и т.д.)&lt;/div&gt;" style="ellipse;whiteSpace=wrap;html=1;" parent="1" vertex="1">
          <mxGeometry x="450" y="320" width="120" height="80" as="geometry" />
        </mxCell>
        <mxCell id="_Mfizh1vhixjblceVXL_-35" value="" style="endArrow=block;endSize=16;endFill=0;html=1;rounded=0;" parent="1" source="_Mfizh1vhixjblceVXL_-33" target="_Mfizh1vhixjblceVXL_-22" edge="1">
          <mxGeometry width="160" relative="1" as="geometry">
            <mxPoint x="590" y="329.76" as="sourcePoint" />
            <mxPoint x="750" y="329.76" as="targetPoint" />
          </mxGeometry>
        </mxCell>
        <mxCell id="_Mfizh1vhixjblceVXL_-36" value="" style="endArrow=block;endSize=16;endFill=0;html=1;rounded=0;" parent="1" source="_Mfizh1vhixjblceVXL_-34" target="_Mfizh1vhixjblceVXL_-22" edge="1">
          <mxGeometry width="160" relative="1" as="geometry">
            <mxPoint x="600" y="339.76" as="sourcePoint" />
            <mxPoint x="760" y="339.76" as="targetPoint" />
          </mxGeometry>
        </mxCell>
        <mxCell id="_Mfizh1vhixjblceVXL_-37" value="&lt;div&gt;Пополнение&amp;nbsp;&lt;/div&gt;&lt;div&gt;ресурсов&lt;/div&gt;" style="ellipse;whiteSpace=wrap;html=1;" parent="1" vertex="1">
          <mxGeometry x="490" y="70" width="120" height="80" as="geometry" />
        </mxCell>
        <mxCell id="_Mfizh1vhixjblceVXL_-42" value="" style="endArrow=open;dashed=1;endFill=0;endSize=12;html=1;rounded=0;" parent="1" source="_Mfizh1vhixjblceVXL_-37" target="_Mfizh1vhixjblceVXL_-8" edge="1">
          <mxGeometry width="160" relative="1" as="geometry">
            <mxPoint x="524" y="118" as="sourcePoint" />
            <mxPoint x="430" y="100" as="targetPoint" />
          </mxGeometry>
        </mxCell>
        <mxCell id="_Mfizh1vhixjblceVXL_-43" value="Включает" style="edgeLabel;html=1;align=center;verticalAlign=middle;resizable=0;points=[];" parent="_Mfizh1vhixjblceVXL_-42" vertex="1" connectable="0">
          <mxGeometry x="0.0286" y="-2" relative="1" as="geometry">
            <mxPoint y="-8" as="offset" />
          </mxGeometry>
        </mxCell>
      </root>
    </mxGraphModel>
  </diagram>
</mxfile>
